<svg width="35" height="35" viewBox="0 0 35 35" fill="none" xmlns="http://www.w3.org/2000/svg">
<g opacity="0.8" filter="url(#filter0_d)">
<path d="M31 15.5001C31 14.6519 30.9204 13.8029 30.7629 12.9787C30.6918 12.6056 30.365 12.3359 29.9858 12.3359H17.5527C17.1155 12.3359 16.7617 12.6897 16.7617 13.127V17.873C16.7617 18.3103 17.1155 18.6641 17.5527 18.6641H23.9319C23.5344 19.4687 22.9866 20.1668 22.3434 20.7542L26.8143 25.225C29.3867 22.7742 31 19.3254 31 15.5001Z" fill="white"/>
<path d="M17.4999 8.32812C19.0519 8.32812 20.5281 8.82098 21.7686 9.75412C22.0822 9.98973 22.5249 9.96115 22.803 9.68071L26.1787 6.30497C26.3355 6.14814 26.4197 5.93261 26.4097 5.71092C26.3997 5.48922 26.2977 5.28219 26.1277 5.13928C23.7122 3.1147 20.6478 2 17.4999 2C12.8673 2 8.77463 4.3548 6.35522 7.93009L10.9984 12.5732C12.1061 10.0781 14.5985 8.32812 17.4999 8.32812Z" fill="white"/>
<path d="M17.5 29C20.5197 29 23.3004 27.9875 25.5473 26.3007L20.9926 21.746C19.9515 22.3322 18.7616 22.6719 17.5 22.6719C14.5985 22.6719 12.1061 20.9219 10.9984 18.4268L6.35522 23.0699C8.77463 26.6452 12.8673 29 17.5 29Z" fill="white"/>
<path d="M10.4433 16.6394C10.3827 16.2661 10.3281 15.8902 10.3281 15.5001C10.3281 15.11 10.3827 14.7341 10.4433 14.3608L5.47973 9.39722C4.54063 11.2313 4 13.3019 4 15.5001C4 17.6983 4.54063 19.7689 5.47978 21.603L10.4433 16.6394Z" fill="white"/>
</g>
<defs>
<filter id="filter0_d" x="0" y="0" width="35" height="35" filterUnits="userSpaceOnUse" color-interpolation-filters="sRGB">
<feFlood flood-opacity="0" result="BackgroundImageFix"/>
<feColorMatrix in="SourceAlpha" type="matrix" values="0 0 0 0 0 0 0 0 0 0 0 0 0 0 0 0 0 0 127 0"/>
<feOffset dy="2"/>
<feGaussianBlur stdDeviation="2"/>
<feColorMatrix type="matrix" values="0 0 0 0 0 0 0 0 0 0 0 0 0 0 0 0 0 0 0.25 0"/>
<feBlend mode="normal" in2="BackgroundImageFix" result="effect1_dropShadow"/>
<feBlend mode="normal" in="SourceGraphic" in2="effect1_dropShadow" result="shape"/>
</filter>
</defs>
</svg>
