<svg width="36" height="36" viewBox="0 0 36 36" fill="none" xmlns="http://www.w3.org/2000/svg">
<g opacity="0.8" filter="url(#filter0_d)">
<path d="M23.25 2H12.75C7.91825 2 4 5.91825 4 10.75V21.25C4 26.0817 7.91825 30 12.75 30H23.25C28.0817 30 32 26.0817 32 21.25V10.75C32 5.91825 28.0817 2 23.25 2ZM29.375 21.25C29.375 24.6275 26.6275 27.375 23.25 27.375H12.75C9.3725 27.375 6.625 24.6275 6.625 21.25V10.75C6.625 7.3725 9.3725 4.625 12.75 4.625H23.25C26.6275 4.625 29.375 7.3725 29.375 10.75V21.25Z" fill="white"/>
<path d="M18 9C14.1342 9 11 12.1342 11 16C11 19.8658 14.1342 23 18 23C21.8658 23 25 19.8658 25 16C25 12.1342 21.8658 9 18 9ZM18 20.375C15.5885 20.375 13.625 18.4115 13.625 16C13.625 13.5868 15.5885 11.625 18 11.625C20.4115 11.625 22.375 13.5868 22.375 16C22.375 18.4115 20.4115 20.375 18 20.375Z" fill="white"/>
<path d="M25.525 9.40798C26.0402 9.40798 26.4578 8.99037 26.4578 8.47523C26.4578 7.96009 26.0402 7.54248 25.525 7.54248C25.0099 7.54248 24.5923 7.96009 24.5923 8.47523C24.5923 8.99037 25.0099 9.40798 25.525 9.40798Z" fill="white"/>
</g>
<defs>
<filter id="filter0_d" x="0" y="0" width="36" height="36" filterUnits="userSpaceOnUse" color-interpolation-filters="sRGB">
<feFlood flood-opacity="0" result="BackgroundImageFix"/>
<feColorMatrix in="SourceAlpha" type="matrix" values="0 0 0 0 0 0 0 0 0 0 0 0 0 0 0 0 0 0 127 0"/>
<feOffset dy="2"/>
<feGaussianBlur stdDeviation="2"/>
<feColorMatrix type="matrix" values="0 0 0 0 0 0 0 0 0 0 0 0 0 0 0 0 0 0 0.25 0"/>
<feBlend mode="normal" in2="BackgroundImageFix" result="effect1_dropShadow"/>
<feBlend mode="normal" in="SourceGraphic" in2="effect1_dropShadow" result="shape"/>
</filter>
</defs>
</svg>
